<?xml version="1.0" encoding="UTF-8" standalone="no"?>
<!DOCTYPE svg PUBLIC "-//W3C//DTD SVG 1.1//EN" "http://www.w3.org/Graphics/SVG/1.1/DTD/svg11.dtd">
<svg width="100%" height="100%" viewBox="0 0 1600 900" version="1.1" xmlns="http://www.w3.org/2000/svg" xmlns:xlink="http://www.w3.org/1999/xlink" xml:space="preserve" xmlns:serif="http://www.serif.com/" style="fill-rule:evenodd;clip-rule:evenodd;stroke-linejoin:round;stroke-miterlimit:1.41421;">
    <g id="group-01" transform="matrix(1,0,0,1,39.5274,116.894)">
        <circle cx="311.25" cy="310.138" r="130.38" style="fill:rgb(43,213,99);"/>
        <g transform="matrix(1,0,0,1,18.9365,19.6616)">
            <text x="242.383px" y="308.135px" style="font-family:'ArialMT', 'Arial', sans-serif;font-size:33px;">Node 1</text>
        </g>
    </g>
    <g id="group-03" transform="matrix(0.534887,0,0,0.534887,927.734,74.1799)">
        <circle cx="311.25" cy="310.138" r="130.38" style="fill:rgb(255,217,45);"/>
        <g transform="matrix(1,0,0,1,18.9365,19.6616)">
            <text x="242.383px" y="308.135px" style="font-family:'ArialMT', 'Arial', sans-serif;font-size:33px;">Node 3</text>
        </g>
    </g>
    <g id="group-05" transform="matrix(0.534887,0,0,0.534887,1055.71,243.456)">
        <circle cx="311.25" cy="310.138" r="130.38" style="fill:rgb(202,48,88);"/>
        <g transform="matrix(1,0,0,1,20.806,19.6616)">
            <text x="242.383px" y="308.135px" style="font-family:'ArialMT', 'Arial', sans-serif;font-size:33px;">Node 5</text>
        </g>
    </g>
    <g id="group-04" transform="matrix(0.534887,0,0,0.534887,342.092,366.681)">
        <circle cx="311.25" cy="310.138" r="130.38" style="fill:rgb(255,217,45);"/>
        <g transform="matrix(1,0,0,1,18.9365,19.6616)">
            <text x="242.383px" y="308.135px" style="font-family:'ArialMT', 'Arial', sans-serif;font-size:33px;">Node 4</text>
        </g>
    </g>
    <g id="group02" transform="matrix(1,0,0,1,589.794,156.722)">
        <circle cx="311.25" cy="310.138" r="130.38" style="fill:rgb(235,235,235);"/>
        <g transform="matrix(1,0,0,1,22.7762,23.0041)">
            <text x="242.383px" y="308.135px" style="font-family:'ArialMT', 'Arial', sans-serif;font-size:33px;">Node 2</text>
        </g>
    </g>
</svg>
